<svg width="119" height="30" viewBox="0 0 119 30" fill="none" xmlns="http://www.w3.org/2000/svg">
<path d="M18.72 19.96L25.04 29H18.36L12.88 21.12C12.72 21.12 12.56 21.12 12.4 21.12H6.6V29H0.44V16.16H12.08C16.16 16.16 18.28 14.28 18.28 11.12C18.28 7.92 16.16 6.08 12.08 6.08H0.44V0.999998H12.4C19.88 0.999998 24.52 4.84 24.52 11.12C24.52 15.32 22.4 18.4 18.72 19.96ZM43.255 29.44C34.455 29.44 27.975 23.32 27.975 15C27.975 6.68 34.455 0.559999 43.255 0.559999C52.015 0.559999 58.495 6.64 58.495 15C58.495 23.36 52.015 29.44 43.255 29.44ZM43.255 24.2C48.375 24.2 52.255 20.4 52.255 15C52.255 9.6 48.375 5.8 43.255 5.8C38.095 5.8 34.215 9.6 34.215 15C34.215 20.4 38.095 24.2 43.255 24.2ZM88.1659 14.6V25.88C85.1259 28.24 80.8859 29.44 76.9259 29.44C68.1259 29.44 61.6859 23.4 61.6859 15C61.6859 6.6 68.1259 0.559999 77.0459 0.559999C81.9259 0.559999 85.9659 2.2 88.6459 5.32L84.6859 9C82.6059 6.84 80.2059 5.8 77.3259 5.8C71.7659 5.8 67.9259 9.56 67.9259 15C67.9259 20.36 71.7659 24.2 77.2459 24.2C79.0859 24.2 80.8059 23.84 82.4859 22.92V14.6H88.1659ZM112.665 19.96L118.985 29H112.305L106.825 21.12C106.665 21.12 106.505 21.12 106.345 21.12H100.545V29H94.3853V16.16H106.025C110.105 16.16 112.225 14.28 112.225 11.12C112.225 7.92 110.105 6.08 106.025 6.08H94.3853V0.999998H106.345C113.825 0.999998 118.465 4.84 118.465 11.12C118.465 15.32 116.345 18.4 112.665 19.96Z" fill="white"/>
</svg>
